<svg class="icon" xmlns="http://www.w3.org/2000/svg" xmlns:xlink="http://www.w3.org/1999/xlink" x="0px" y="0px"
     viewBox="0 0 28 28" enable-background="new 0 0 28 28" xml:space="preserve"><g transform="translate(0,-952.36218)"><path style="text-indent:0;text-transform:none;direction:ltr;block-progression:tb;baseline-shift:baseline;color:#000000;enable-background:accumulate;" d="m 50,985.36216 c -14.72423,0 -27.747918,5.8493 -35.312499,15.09384 a 3.0003,3.0003 0 0 0 0,3.7812 c 7.564581,9.2444 20.588269,15.125 35.312499,15.125 14.724228,0 27.747918,-5.8806 35.312498,-15.125 a 3.0003,3.0003 0 0 0 0,-3.7812 C 77.747918,991.21146 64.724228,985.36216 50,985.36216 z m 0,7 c 5.558379,0 9.999999,4.4416 9.999999,10.00004 0,5.5583 -4.44165,10 -9.999999,10 -5.55834,0 -10,-4.4417 -10,-10 0,-5.55844 4.441631,-10.00004 10,-10.00004 z m -13.15625,0.9688 C 35.060501,995.91076 34,999.00616 34,1002.3622 c 0,3.356 1.06051,6.4827 2.84375,9.0625 -6.245549,-1.9175 -11.5813,-5.1328 -15.499999,-9.0625 3.91795,-3.93464 9.254809,-7.11534 15.499999,-9.03124 z m 26.312499,0 c 6.245189,1.9159 11.582049,5.0966 15.5,9.03124 -3.9187,3.9297 -9.254451,7.145 -15.5,9.0625 1.78324,-2.5798 2.84375,-5.7065 2.84375,-9.0625 0,-3.35604 -1.06051,-6.45144 -2.84375,-9.03124 z M 50,994.36216 c -4.38276,0 -8,3.6173 -8,8.00004 0,4.3827 3.61724,8 8,8 4.382758,0 7.999999,-3.6173 7.999999,-8 0,-4.38274 -3.61724,-8.00004 -7.999999,-8.00004 z m 0,6.00004 c 1.14008,0 1.999999,0.8599 1.999999,2 0,1.1401 -0.859918,2 -1.999999,2 -1.14006,0 -2,-0.8599 -2,-2 0,-1.1401 0.85994,-2 2,-2 z" fill="#000000" fill-opacity="1" stroke="none" marker="none" visibility="visible" display="inline" overflow="visible"></path></g></svg>